<svg width="100" height="116" viewBox="0 0 100 116" fill="none" xmlns="http://www.w3.org/2000/svg">
<path d="M0 0H50C77.6142 0 100 22.3858 100 50V116H50C22.3858 116 0 93.6142 0 66V0Z" fill="black"/>
<path d="M40.6451 73.9947L41.9391 76.3696H58.0609L59.3549 73.9947M46.0617 86.4727H47.2654M48.2885 86.4727H49.4922M50.5153 86.4727H51.719M52.7346 86.4727H53.9383M50.0038 78.8438V84.953M52.6443 76.4078L53.3666 78.5384M47.3557 76.4078L46.6334 78.5384M37.666 44.113V73.8266H62.3265V44.113M37.666 44.113V40.5239C37.666 33.6052 43.1954 28 50.0038 28C56.8121 28 62.334 33.6052 62.334 40.5239V44.113H62.3265M37.666 44.113H62.3265M37.9669 42.5246H62.0331M43.1051 44.2352V45.3349H56.8949V44.2352M45.2492 29.0691H47.5964L46.9344 31.2684H41.9992M54.7508 29.0691H52.4111L53.0656 31.2684H58.0008M61.9127 37.3013H58.6778V41.4632H62.319M38.2152 37.3013H40.442V41.4632H37.9368M41.6908 41.4632V37.3013M57.429 41.4632V37.3013M46.2347 41.5319V38.2711M44.8655 39.4777H43.06M48.108 60.1344H51.8996M35.5144 60.8981V69.1989M32.1892 69.1989V60.8981M36.1388 46.1901H37.335M36.1388 55.3463H37.335M31.3541 57.9122L30.5116 57.2402V54.5521L31.3541 53.8801M33.4305 61.1424V69.0767M39.9154 83.7923L40.1034 85.984V88H30V85.984L31.6852 78.4773H37.2823M31.1134 86.4727H32.3171M33.3402 86.4727H34.5439M35.567 86.4727H36.7707M37.7863 86.4727H38.99M31.6852 74.0252L33.25 76.7667M40.3818 76.4765L40.0207 81.9519M38.5763 76.3543L38.2152 81.8297M34.6944 72.1924V71.3982C34.6944 71.131 34.9125 70.9095 35.1759 70.9095C35.4392 70.9095 35.6573 71.131 35.6573 71.3982V72.1924M36.6203 72.9866H36.0786V72.3757H34.2731V74.2085H35.4768V75.4303H36.6203M64.4856 60.8981V69.1989M67.8108 69.1989V60.8981M63.8687 46.1901H62.665M63.8687 55.3463H62.665M68.6459 57.9122L69.4884 57.2402V54.5521L68.6459 53.8801M66.577 61.1424V69.0767M60.0922 83.7923L59.8966 85.984V88H70V85.984L68.3148 78.4773H62.7252M68.8866 86.4727H67.6904M66.6673 86.4727H65.4636M64.4405 86.4727H63.2368M62.2137 86.4727H61.01M68.3148 74.0252L66.7576 76.7667M59.6257 76.4765L59.9868 81.9519M61.4237 76.3543L61.7848 81.8297M65.3131 72.1924V71.3982C65.3131 71.131 65.095 70.9095 64.8317 70.9095C64.5684 70.9095 64.3502 71.131 64.3502 71.3982V72.1924M63.3872 72.9866H63.9289V72.3757H65.7344V74.2085H64.5307V75.4303H63.3872M55.0517 88H44.9483L45.6103 78.7827H54.3897L55.0517 88ZM50.4251 34.2696C50.4251 34.9865 49.8525 35.5678 49.1461 35.5678C48.4398 35.5678 47.8672 34.9865 47.8672 34.2696C47.8672 33.5526 48.4398 32.9714 49.1461 32.9714C49.8525 32.9714 50.4251 33.5526 50.4251 34.2696ZM56.1877 38.9278C56.1877 39.8051 55.4871 40.5162 54.6229 40.5162C53.7587 40.5162 53.0581 39.8051 53.0581 38.9278C53.0581 38.0506 53.7587 37.3394 54.6229 37.3394C55.4871 37.3394 56.1877 38.0506 56.1877 38.9278ZM54.1339 46.9003H48.7625V47.4731L45.3094 46.9156L42.9321 47.5876V48.4353L45.3094 49.0997L48.7625 48.5422V49.0462H54.1339L57.0679 48.4353V47.5876L54.1339 46.9003ZM45.8661 50.6651H51.2375V51.2455L54.6906 50.6804L57.0679 51.3524V52.2001L54.6906 52.8644L51.2375 52.307V52.8186H45.8661L42.9321 52.2001V51.3524L45.8661 50.6651ZM47.9274 69.1378H52.0801V73.1088H47.9274V69.1378ZM47.9274 54.5292H52.0801V65.7396H47.9274V54.5292ZM51.388 29.0691H48.5894L47.9575 31.2684H52.05L51.388 29.0691ZM46.9494 32.2001L46.3024 36.4231H53.6976L53.0882 32.2001H46.9494ZM50.8614 39.8824C50.8614 40.3421 50.4943 40.7148 50.0414 40.7148C49.5885 40.7148 49.2214 40.3421 49.2214 39.8824C49.2214 39.4227 49.5885 39.05 50.0414 39.05C50.4943 39.05 50.8614 39.4227 50.8614 39.8824ZM47.4835 38.2711H51.8168V41.5242H47.4835V38.2711ZM42.9321 37.3013H44.9859V41.4632H42.9321V37.3013ZM58.7004 46.068H60.9799V65.0523H58.7004V46.068ZM39.0276 46.068H41.3071V65.0523H39.0276V46.068ZM31.625 45.457H36.0184V60.8981H31.625V45.457ZM31.625 69.3211H37.0115V77.0645H31.625V69.3211ZM40.9235 83.7312L37.0792 83.4716L37.5757 75.9191C37.6434 74.8423 38.5612 74.0252 39.622 74.1016C40.6827 74.1703 41.4877 75.1019 41.4125 76.1787L40.9159 83.7312H40.9235ZM63.9891 45.457H68.3825V60.8981H63.9891V45.457ZM62.996 69.3211H68.3825V77.0645H62.996V69.3211ZM59.0765 83.7312L62.9208 83.4716L62.4243 75.9191C62.3566 74.8423 61.4388 74.0252 60.378 74.1016C59.3173 74.1703 58.5123 75.1019 58.5876 76.1787L59.0841 83.7312H59.0765Z" stroke="white" stroke-width="0.8" stroke-linecap="round" stroke-linejoin="round"/>
</svg>
